mtllib untitled.mtl
o Mesh.381_sponza_126
v -1015.739990 680.956970 -56.906590
v -1007.751709 680.956970 -56.906590
v -1007.751709 680.956970 -46.871788
v -1015.739990 680.956970 -46.871788
v -1007.751709 692.297180 -46.871784
v -1007.751709 692.297180 -59.861485
v -1015.739990 692.297180 -59.861485
v -1015.739990 692.297180 -46.871784
v -1015.739990 682.606384 -57.916988
v -1007.751709 682.606384 -57.916988
v -1007.751709 683.502380 -59.861488
v -1015.739990 683.502380 -59.861488
vt 0.359300 0.807200
vt 0.414300 0.807200
vt 0.414300 0.738100
vt 0.359300 0.738100
vt 0.414300 0.983900
vt 0.414300 0.894500
vt 0.359300 0.894500
vt 0.359300 0.983900
vt 0.491500 0.903100
vt 0.422400 0.903100
vt 0.498400 0.914500
vt 0.359300 0.820500
vt 0.414300 0.820500
vt 0.434600 0.816400
vt 0.427700 0.827800
vt 0.503700 0.816400
vt 0.422400 0.981200
vt 0.511800 0.981200
vt 0.414300 0.833900
vt 0.359300 0.833900
vt 0.503700 0.894500
vt 0.511800 0.920600
vn -0.611866 -0.690054 -0.386517
vn 0.611866 -0.690054 -0.386517
vn 0.707083 -0.707083 0.000000
vn -0.707083 -0.707083 0.000000
vn 0.707083 0.707083 0.000000
vn 0.577349 0.577349 -0.577349
vn -0.577349 0.577349 -0.577349
vn -0.707083 0.707083 0.000000
vn -0.778680 -0.468978 -0.416730
vn 0.778680 -0.468978 -0.416730
vn 0.603504 -0.429914 -0.671499
vn -0.603504 -0.429914 -0.671499
usemtl
s 1
f 1/1/1 2/2/2 3/3/3
f 1/1/1 3/3/3 4/4/4
f 5/5/5 6/6/6 7/7/7
f 5/5/5 7/7/7 8/8/8
f 1/9/1 4/10/4 9/11/9
f 1/1/1 9/12/9 10/13/10
f 1/1/1 10/13/10 2/2/2
f 2/14/2 10/15/10 3/16/3
f 9/11/9 4/10/4 8/17/8
f 9/11/9 8/17/8 7/18/7
f 11/19/11 12/20/12 7/7/7
f 11/19/11 7/7/7 6/6/6
f 5/21/5 3/16/3 10/15/10
f 5/21/5 10/15/10 6/6/6
f 7/18/7 12/22/12 9/11/9
f 12/20/12 11/19/11 10/13/10
f 12/20/12 10/13/10 9/12/9
f 10/15/10 11/19/11 6/6/6
o 
